<svg xmlns="http://www.w3.org/2000/svg" viewBox="0 0 482.64 119.44">
    <defs>
        <style>.cls-1{fill:#0062a5;}.cls-2{fill:#141414;}.cls-3{fill:#005444;}</style>
    </defs>
    <title>acephap-all-solid_2</title>
    <g id="Layer_2" data-name="Layer 2">
        <g id="Layer_3" data-name="Layer 3">
            <path class="cls-1"
                  d="M91.24,45.88l0-.21-.06-.19-.1-.17c0-.05-.08-.11-.13-.14a1.06,1.06,0,0,0-.77-.22,4.38,4.38,0,0,0-1,.16c-.37.09-.73.21-1.11.32l-.28-1A9.43,9.43,0,0,1,90.15,44a2.56,2.56,0,0,1,.71.09,1.78,1.78,0,0,1,.7.38,1.56,1.56,0,0,1,.27.3,1.77,1.77,0,0,1,.19.33c0,.12.09.25.13.37s0,.25,0,.37Z"/>
            <path class="cls-1"
                  d="M83.31,45.23a9.1,9.1,0,0,1-2-1.32,16.92,16.92,0,0,1-1.64-1.64l1.21-1a14,14,0,0,0,1.35,1.61,8,8,0,0,0,1.6,1.25Z"/>
            <path class="cls-1"
                  d="M66.43,16.88c0,.09,0,.11,0,.1l-.4-.05-.31,0-.39,0h-.82l.43-7.35c.45.05.91.12,1.37.21l.7.16.77.21a9.49,9.49,0,0,1,1.67.7,6.83,6.83,0,0,1,1.77,1.35Z"/>
            <path class="cls-1" d="M60.79,17.35c-1.45.27-2.9.57-4.35.82l-1-8.25c1.46-.15,2.92-.27,4.38-.4Z"/>
            <path class="cls-1"
                  d="M51.16,18.48a14.51,14.51,0,0,1-3-.53,12.69,12.69,0,0,1-3-1.3l4.45-7.43a5.27,5.27,0,0,0,1,.46,6.46,6.46,0,0,0,1.3.27Z"/>
            <path class="cls-1"
                  d="M40.81,12.76l-1.39-1.71c-.41-.51-.8-.94-1.15-1.3l5.84-6.18A21.74,21.74,0,0,1,46,5.5L47.4,7.18Z"/>
            <path class="cls-1"
                  d="M36.23,8.33A5.8,5.8,0,0,0,33.62,8L32.54.25a14.23,14.23,0,0,1,3-.25,13.43,13.43,0,0,1,3.16.47Z"/>
            <path class="cls-1" d="M30.13,8.7q-2,.71-4,1.38L23.41,4c1.37-.71,2.74-1.4,4.13-2.08Z"/>
            <path class="cls-1" d="M22.29,11.61a41.49,41.49,0,0,0-3.69,1.9L15.54,9.05c1.22-1,2.49-1.89,3.81-2.74Z"/>
            <path class="cls-1" d="M15.1,15.77a37.44,37.44,0,0,0-3.25,2.64l-3-2.89c1-1.17,2.07-2.31,3.19-3.38Z"/>
            <path class="cls-1"
                  d="M9,21.43c-.45.54-.88,1.08-1.29,1.65s-.8,1.15-1.17,1.74L3.62,23.19c.35-.69.74-1.36,1.14-2S5.57,19.85,6,19.21Z"/>
            <path class="cls-1"
                  d="M4.6,28.53c-.27.65-.5,1.3-.72,2s-.37,1.34-.52,2L.5,31.92c.14-.76.33-1.52.54-2.27s.44-1.49.7-2.22Z"/>
            <path class="cls-1" d="M2.91,36.61a18.73,18.73,0,0,0,.4,4.09l-2.93.56A25.44,25.44,0,0,1,0,36.57Z"/>
            <path class="cls-1"
                  d="M4.56,44.6c.14.32.28.61.43.91s.32.58.49.86A12.35,12.35,0,0,0,6.63,48l-2.7,2.08A20.25,20.25,0,0,1,2.65,48q-.28-.54-.54-1.08c-.17-.37-.33-.75-.46-1.12Z"/>
            <path class="cls-1" d="M9.52,50.52a9,9,0,0,0,3.4,1.3L12,55.91a14,14,0,0,1-4.6-2.3Z"/>
            <path class="cls-1" d="M16.64,51.75c1.3-.2,2.66-.54,4.09-.89L21.67,56c-1.46.17-3,.37-4.64.41Z"/>
            <path class="cls-1" d="M25.36,49.9a16.69,16.69,0,0,1,5.36.19l-1.57,6.2a11.1,11.1,0,0,0-3.39-.57Z"/>
            <path class="cls-1"
                  d="M36.15,52.54a9.45,9.45,0,0,1,2.26,2.65,9.74,9.74,0,0,1,.73,1.65,17,17,0,0,1,.4,1.68l-7.39.88c0-.15,0-.34,0-.48a1.7,1.7,0,0,0-.09-.39,2.38,2.38,0,0,0-.47-.79Z"/>
            <path class="cls-1"
                  d="M39.92,62.76a5.25,5.25,0,0,0,.43,1.1,13.45,13.45,0,0,0,.84,1.37l-7,4.37A19.57,19.57,0,0,1,33,67.09,12.53,12.53,0,0,1,32.12,64Z"/>
            <path class="cls-1"
                  d="M43.77,68.84a17.27,17.27,0,0,1,1.4,2.52,12.14,12.14,0,0,1,.94,3.27l-8.73,1.05a3.22,3.22,0,0,0-.21-1,9,9,0,0,0-.67-1.38Z"/>
            <path class="cls-1"
                  d="M45.35,80.89c-.23.76-.43,1.4-.55,1.91a5.34,5.34,0,0,0-.12.67c0,.21,0,.42,0,.63l-9.24-.7c.07-.53.15-1.05.24-1.57A13.75,13.75,0,0,1,36,80.36c.27-.91.56-1.66.79-2.3Z"/>
            <path class="cls-1" d="M45,87a30.24,30.24,0,0,0,1.27,3.54l-9.07,3.49a37.69,37.69,0,0,1-1.44-4.85Z"/>
            <polygon class="cls-1" points="48.01 94.57 49.73 98.63 40.36 102.38 38.8 98.26 48.01 94.57"/>
            <polygon class="cls-1"
                     points="51.43 102.7 52.27 104.74 53.05 106.54 43.67 110.83 42.73 108.56 41.93 106.5 51.43 102.7"/>
            <path class="cls-1"
                  d="M54.42,108.77a1.42,1.42,0,0,0,.4.32l.14.06.23,0L54,119.44a11.2,11.2,0,0,1-1.93-.39,10.37,10.37,0,0,1-1.91-.75A11.83,11.83,0,0,1,47,116Z"/>
            <path class="cls-1" d="M57,108.92a7.48,7.48,0,0,0,2.24-1.37l6.76,7.5a17.72,17.72,0,0,1-5.17,3.35Z"/>
            <path class="cls-1" d="M61.37,105.19a22.8,22.8,0,0,0,1.85-3.11l8.78,4a31.82,31.82,0,0,1-2.43,4.6Z"/>
            <path class="cls-1" d="M64.87,98.38c.57-1.38,1.17-2.75,1.76-4.13L75,97.52c-.44,1.38-.86,2.77-1.33,4.13Z"/>
            <path class="cls-1"
                  d="M68.86,89.91c.47-.73.93-1.45,1.42-2.15l1.49-1.89,6.36,4.51-1,1.76c-.26.57-.52,1.12-.79,1.67Z"/>
            <path class="cls-1"
                  d="M74.15,82.85a8,8,0,0,0,.68-1.27A4.76,4.76,0,0,0,75,81c0-.21.06-.43.11-.65L81.38,80c0,.52.07,1,.08,1.56a10.18,10.18,0,0,1-.15,1.57A13.14,13.14,0,0,1,80.48,86Z"/>
            <path class="cls-1"
                  d="M74.72,76.69c-.16-.72-.33-1.49-.47-2.31A15.55,15.55,0,0,1,74,71.75l4.49-.33A19.19,19.19,0,0,0,79.82,75Z"/>
            <path class="cls-1"
                  d="M75.47,66.5a13.72,13.72,0,0,1,1.51-2,22.35,22.35,0,0,1,1.68-1.69l2.1,2a12.22,12.22,0,0,0-2,3.36Z"/>
            <path class="cls-1"
                  d="M82.15,59.9l1.65-1.39a9.23,9.23,0,0,0,.79-.73l.77-.74,1.3,1.11-.73.89c-.24.29-.48.59-.74.86l-1.53,1.65Z"/>
            <path class="cls-1" d="M88,53.69a24.78,24.78,0,0,0,2-3.81l1,.4a28,28,0,0,1-1.89,4.09Z"/>
            <path class="cls-2"
                  d="M41.12,39.53v-.87a10,10,0,0,1-4.73,1.16,10.44,10.44,0,0,1,0-20.88,10.1,10.1,0,0,1,4.73,1.26v-.39h5.61V39.53Zm0-10.15a4.79,4.79,0,1,0-4.73,4.84A4.76,4.76,0,0,0,41.12,29.38Z"/>
            <path class="cls-2"
                  d="M69.7,34.12a10.51,10.51,0,1,1-4.26-13.83l-2.71,4.93a5.38,5.38,0,0,0-2.41-.67,4.83,4.83,0,0,0-4.74,4.83,4.77,4.77,0,0,0,4.74,4.84,5.07,5.07,0,0,0,4.35-2.61Z"/>
            <path class="cls-2"
                  d="M91,34.12a10.62,10.62,0,0,1-9.38,5.7,10.44,10.44,0,0,1,0-20.88,10.16,10.16,0,0,1,8.7,5.12c.77,1.46,1.35,2.42,1.35,2.42s-8.7,5.32-12,7.35a6.37,6.37,0,0,0,1.94.39A5.07,5.07,0,0,0,86,31.61ZM83.38,25a3.37,3.37,0,0,0-1.74-.48A4.56,4.56,0,0,0,76.9,29C79.12,27.64,81,26.48,83.38,25Z"/>
            <path class="cls-2"
                  d="M94.93,49.49V19.81h5.61v.39a10.22,10.22,0,0,1,4.84-1.26,10.44,10.44,0,0,1,0,20.88,10.15,10.15,0,0,1-4.84-1.16V49.49Zm15.18-20.11a4.79,4.79,0,1,0-4.73,4.84A4.76,4.76,0,0,0,110.11,29.38Z"/>
            <path class="cls-2"
                  d="M131.53,39.53V28.61a3.68,3.68,0,0,0-7.35,0V39.53h-5.61V12.75h5.61V20.1a9.7,9.7,0,0,1,3.68-.77,9.28,9.28,0,0,1,9.28,9.28V39.53Z"/>
            <path class="cls-2"
                  d="M155.17,39.53v-.87a10,10,0,0,1-4.74,1.16,10.44,10.44,0,1,1,0-20.88,10.11,10.11,0,0,1,4.74,1.26v-.39h5.61V39.53Zm0-10.15a4.79,4.79,0,1,0-4.74,4.84A4.77,4.77,0,0,0,155.17,29.38Z"/>
            <path class="cls-2"
                  d="M165,49.49V19.81h5.61v.39a10.22,10.22,0,0,1,4.84-1.26,10.44,10.44,0,0,1,0,20.88,10.15,10.15,0,0,1-4.84-1.16V49.49Zm15.18-20.11a4.79,4.79,0,1,0-4.73,4.84A4.76,4.76,0,0,0,180.21,29.38Z"/>
            <path class="cls-3"
                  d="M92.29,84.5l-1.11,2.38H88v-.41l6.59-14H96l6.55,14v.41H99.38L98.25,84.5Zm1-2.58h4l-2-4.73Z"/>
            <path class="cls-3" d="M112.3,81.78h-5.14v5.1h-3V72.54h8.79v2.68h-5.74v3.87h5.14Z"/>
            <path class="cls-3"
                  d="M127.15,86.43v.43h-3.27l-2.95-4.74h-2.56v4.74H115.3V72.52c2,0,4.07,0,6.12,0a4.81,4.81,0,0,1,5.06,4.92,4.54,4.54,0,0,1-2.56,4.21Zm-5.75-6.82a2.09,2.09,0,0,0,2.11-2.24,2.05,2.05,0,0,0-2.11-2.17h-3.07v4.41Z"/>
            <path class="cls-3" d="M135.82,84.44v2.44h-7.13V84.44h2V74.92h-1.86V72.54h6.79v2.38h-1.86v9.52Z"/>
            <path class="cls-3"
                  d="M144.69,72.4c2.89,0,6,1.55,6.61,5.1h-3a3.56,3.56,0,0,0-3.64-2.34c-2.54,0-4.24,1.85-4.24,4.57a4.24,4.24,0,0,0,4.22,4.5,3.56,3.56,0,0,0,3.72-2.58h3c-.61,3.79-3.66,5.37-6.65,5.37a7.31,7.31,0,1,1,0-14.62Z"/>
            <path class="cls-3"
                  d="M156,84.5l-1.11,2.38h-3.19v-.41l6.59-14h1.41l6.56,14v.41h-3.18L162,84.5Zm1-2.58h4l-2-4.73Z"/>
            <path class="cls-3" d="M170.91,78.69v8.19h-3V72.48h1l8.05,8.19V72.54h3.07V86.92H179Z"/>
            <path class="cls-3"
                  d="M194.81,72.4c2.89,0,6,1.55,6.62,5.1h-3a3.58,3.58,0,0,0-3.65-2.34c-2.54,0-4.24,1.85-4.24,4.57a4.24,4.24,0,0,0,4.22,4.5,3.57,3.57,0,0,0,3.73-2.58h2.95c-.62,3.79-3.67,5.37-6.66,5.37a7.31,7.31,0,1,1,0-14.62Z"/>
            <path class="cls-3" d="M212.65,75.22H207v2.91h5.33v2.68H207v3.28h5.86v2.79h-8.95V72.54h8.78Z"/>
            <path class="cls-3" d="M218.64,78.69v8.19h-3V72.48h1l8,8.19V72.54h3.07V86.92h-.92Z"/>
            <path class="cls-3" d="M229.7,75.2V72.54h10.61V75.2H236.5V86.88h-3V75.2Z"/>
            <path class="cls-3" d="M251.12,75.22h-5.69v2.91h5.33v2.68h-5.33v3.28h5.86v2.79h-8.95V72.54h8.78Z"/>
            <path class="cls-3"
                  d="M265.93,86.43v.43h-3.27l-3-4.74h-2.56v4.74h-3.07V72.52c2,0,4.07,0,6.12,0a4.8,4.8,0,0,1,5.06,4.92,4.54,4.54,0,0,1-2.56,4.21Zm-5.75-6.82a2.09,2.09,0,0,0,2.11-2.24,2.05,2.05,0,0,0-2.11-2.17h-3.07v4.41Z"/>
            <path class="cls-3"
                  d="M279.72,87.12a7.4,7.4,0,1,1,7.35-7.41A7,7,0,0,1,279.72,87.12Zm0-2.8c2.23,0,4.26-1.48,4.26-4.61s-2-4.57-4.24-4.57-4.26,1.54-4.26,4.57S277.47,84.32,279.76,84.32Z"/>
            <path class="cls-3" d="M297.79,81.78h-5.14v5.1h-3V72.54h8.78v2.68h-5.73v3.87h5.14Z"/>
            <path class="cls-3" d="M314.24,75.22h-5.7v2.91h5.33v2.68h-5.33v3.28h5.86v2.79h-8.95V72.54h8.79Z"/>
            <path class="cls-3"
                  d="M322.43,77.48l1.39-2.71,1.42-2.23h3.31V73l-4.32,6.31L329,86.45v.43h-3.21L324,84.11l-1.54-2.68h-.1l-1.58,2.76L319,86.88h-3.26v-.43l4.84-7.15L316.21,73v-.45h3.33L321,74.9l1.31,2.58Z"/>
            <path class="cls-3"
                  d="M337,72.4c2.88,0,5.95,1.55,6.61,5.1h-3A3.56,3.56,0,0,0,337,75.16c-2.54,0-4.24,1.85-4.24,4.57a4.23,4.23,0,0,0,4.22,4.5,3.56,3.56,0,0,0,3.72-2.58h2.95C343,85.44,340,87,337,87a7.31,7.31,0,1,1,0-14.62Z"/>
            <path class="cls-3" d="M354.84,75.22h-5.7v2.91h5.33v2.68h-5.33v3.28H355v2.79h-8.95V72.54h8.79Z"/>
            <path class="cls-3" d="M360.84,84.13h6v2.75h-9.05V72.54h3.07Z"/>
            <path class="cls-3" d="M371.88,84.13h6v2.75h-9.05V72.54h3.07Z"/>
            <path class="cls-3" d="M388.63,75.22h-5.69v2.91h5.33v2.68h-5.33v3.28h5.86v2.79h-8.95V72.54h8.78Z"/>
            <path class="cls-3" d="M394.62,78.69v8.19h-3.05V72.48h1l8.05,8.19V72.54h3.07V86.92h-.92Z"/>
            <path class="cls-3"
                  d="M413.5,72.4c2.89,0,6,1.55,6.62,5.1h-3a3.58,3.58,0,0,0-3.65-2.34c-2.54,0-4.24,1.85-4.24,4.57a4.24,4.24,0,0,0,4.22,4.5,3.57,3.57,0,0,0,3.73-2.58h3c-.62,3.79-3.67,5.37-6.66,5.37a7.31,7.31,0,1,1,0-14.62Z"/>
            <path class="cls-3" d="M431.34,75.22h-5.69v2.91H431v2.68h-5.33v3.28h5.86v2.79h-8.95V72.54h8.78Z"/>
            <path class="cls-3" d="M98,106.92H92.82V112h-3V97.68h8.79v2.68H92.82v3.87H98Z"/>
            <path class="cls-3"
                  d="M107.43,112.26a7.4,7.4,0,1,1,7.35-7.41A7,7,0,0,1,107.43,112.26Zm0-2.8c2.23,0,4.26-1.48,4.26-4.61s-2-4.57-4.24-4.57-4.26,1.54-4.26,4.57S105.18,109.46,107.47,109.46Z"/>
            <path class="cls-3"
                  d="M129.18,111.56V112H125.9L123,107.26H120.4V112h-3.08V97.66c2.05,0,4.08,0,6.13,0a4.8,4.8,0,0,1,5,4.91,4.56,4.56,0,0,1-2.56,4.22Zm-5.75-6.81a2.09,2.09,0,0,0,2.11-2.24,2.05,2.05,0,0,0-2.11-2.17h-3.08v4.41Z"/>
            <path class="cls-3"
                  d="M136.5,112V97.66c2,0,4.07,0,6.12,0a5,5,0,0,1,5.1,5.22,4.88,4.88,0,0,1-5.1,5.06h-3.05v4Zm6.12-6.67a2.31,2.31,0,0,0,2.17-2.52,2.25,2.25,0,0,0-2.17-2.46c-1,0-2.07,0-3.11,0v5Z"/>
            <path class="cls-3"
                  d="M156.39,112.26a7.4,7.4,0,1,1,7.35-7.41A7,7,0,0,1,156.39,112.26Zm0-2.8c2.23,0,4.25-1.48,4.25-4.61s-2-4.57-4.23-4.57-4.26,1.54-4.26,4.57S154.13,109.46,156.43,109.46Z"/>
            <path class="cls-3"
                  d="M166.28,112V97.66c2.05,0,4.08,0,6.12,0a5,5,0,0,1,5.1,5.22,4.88,4.88,0,0,1-5.1,5.06h-3.05v4Zm6.12-6.67a2.31,2.31,0,0,0,2.17-2.52,2.24,2.24,0,0,0-2.17-2.46c-1,0-2.06,0-3.11,0v5Z"/>
            <path class="cls-3"
                  d="M179.56,107.24V97.68h3.07v9.5a2.67,2.67,0,0,0,5.3,0v-9.5h3v9.56c0,3.22-2.64,5-5.67,5S179.56,110.46,179.56,107.24Z"/>
            <path class="cls-3" d="M197.23,109.27h6V112h-9.05V97.68h3.07Z"/>
            <path class="cls-3"
                  d="M207.72,109.64,206.61,112h-3.19v-.41l6.59-14h1.42l6.55,14V112h-3.17l-1.13-2.38Zm1-2.58h4l-2-4.73Z"/>
            <path class="cls-3" d="M217.18,100.34V97.68h10.61v2.66H224V112h-3V100.34Z"/>
            <path class="cls-3" d="M236.21,109.58V112h-7.12v-2.44h2v-9.52h-1.86V97.68h6.8v2.38h-1.87v9.52Z"/>
            <path class="cls-3"
                  d="M245,112.26a7.4,7.4,0,1,1,7.35-7.41A7,7,0,0,1,245,112.26Zm0-2.8c2.23,0,4.26-1.48,4.26-4.61s-2-4.57-4.24-4.57-4.26,1.54-4.26,4.57S242.79,109.46,245.08,109.46Z"/>
            <path class="cls-3" d="M258,103.82V112h-3.05V97.62h1l8.05,8.19V97.68H267v14.38h-.92Z"/>
            <path class="cls-3" d="M283.88,112V106h-5.49V112h-3.05V97.68h3.05v5.47h5.49V97.68H287V112Z"/>
            <path class="cls-3" d="M299.06,100.36h-5.7v2.91h5.33V106h-5.33v3.28h5.86V112h-9V97.68h8.79Z"/>
            <path class="cls-3"
                  d="M304.51,109.64,303.4,112h-3.19v-.41l6.59-14h1.41l6.56,14V112h-3.18l-1.12-2.38Zm1-2.58h4l-2-4.73Z"/>
            <path class="cls-3" d="M319.4,109.27h6V112h-9.05V97.68h3.07Z"/>
            <path class="cls-3" d="M325,100.34V97.68h10.61v2.66h-3.81V112h-3V100.34Z"/>
            <path class="cls-3" d="M346.15,112V106h-5.49V112h-3.05V97.68h3.05v5.47h5.49V97.68h3.07V112Z"/>
            <path class="cls-3"
                  d="M359.43,109.64,358.32,112h-3.19v-.41l6.59-14h1.41l6.55,14V112h-3.17l-1.12-2.38Zm1-2.58h4l-2-4.73Z"/>
            <path class="cls-3" d="M374.3,103.82V112h-3.05V97.62h1l8.05,8.19V97.68h3.07v14.38h-.92Z"/>
            <path class="cls-3"
                  d="M392,97.7A7.16,7.16,0,0,1,392,112h-5.32V97.7Zm0,11.55c2.65,0,4-2.13,4-4.42s-1.42-4.36-4-4.36h-2.23v8.78Z"/>
            <path class="cls-3"
                  d="M406.6,112V97.66c2,0,4.08,0,6.13,0a5,5,0,0,1,5.09,5.22,4.88,4.88,0,0,1-5.09,5.06h-3.06v4Zm6.13-6.67a2.31,2.31,0,0,0,2.17-2.52,2.25,2.25,0,0,0-2.17-2.46c-1.05,0-2.07,0-3.12,0v5Z"/>
            <path class="cls-3"
                  d="M426.49,112.26a7.4,7.4,0,1,1,7.35-7.41A7,7,0,0,1,426.49,112.26Zm0-2.8c2.23,0,4.26-1.48,4.26-4.61s-2-4.57-4.24-4.57-4.26,1.54-4.26,4.57S424.24,109.46,426.53,109.46Z"/>
            <path class="cls-3" d="M439.44,109.27h6V112h-9.05V97.68h3.07Z"/>
            <path class="cls-3" d="M453.8,109.58V112h-7.13v-2.44h2v-9.52h-1.87V97.68h6.8v2.38h-1.86v9.52Z"/>
            <path class="cls-3"
                  d="M462.67,97.54c2.88,0,5.95,1.55,6.61,5.1h-3a3.56,3.56,0,0,0-3.64-2.34c-2.54,0-4.24,1.85-4.24,4.57a4.23,4.23,0,0,0,4.21,4.5,3.57,3.57,0,0,0,3.73-2.58h2.95c-.61,3.79-3.67,5.37-6.65,5.37a7.31,7.31,0,1,1,0-14.62Z"/>
            <path class="cls-3"
                  d="M476.25,103.48l1.41-2.85,1.72-2.95h3.26v.45l-4.92,8.15V112h-3.07v-5.74l-4.94-8.15v-.45H473l1.78,3,1.35,2.75Z"/>
        </g>
    </g>
</svg>