<svg xmlns="http://www.w3.org/2000/svg" viewBox="0 0 486.42 118.32"><defs><style>.cls-1{fill:#025268;}</style></defs><title>Proposed Logo type 2</title><g id="Layer_2" data-name="Layer 2"><g id="Layer_3" data-name="Layer 3"><path class="cls-1" d="M92.46,45.25c4.18-9,9.52-18.8,16.16-25.62,1.09-1.11,1.84-2.51,2.82-3.72.77-.95,4.92-6.59,6.22-4.91a1,1,0,0,1-.12,1.29l-.05,0a89.3,89.3,0,0,1-10.75,8.22,45.93,45.93,0,0,1-12.49,5.7,1.41,1.41,0,0,1-.74-2.72h0a43.29,43.29,0,0,0,12-5,87.06,87.06,0,0,0,10.77-7.66l1.15,1.49a29.22,29.22,0,0,0-4.72,4.6A131.87,131.87,0,0,0,96.58,41.12a116.93,116.93,0,0,0-5.37,10.52"/><path class="cls-1" d="M92,46.8a1.07,1.07,0,0,0-.6-.78,2.1,2.1,0,0,0-1.1-.1,20.27,20.27,0,0,0-2.41.61,4.53,4.53,0,0,1-.64.13,3,3,0,0,1-.66.06h-.33l-.33,0a3.4,3.4,0,0,1-.65-.13,6.49,6.49,0,0,1-2.31-1.18,16,16,0,0,1-3.39-3.81c-.94-1.4-1.82-2.84-2.67-4.3-1.67-2.92-3.21-5.93-4.61-9s-2.71-6.17-4-9.29L68,18.42l.63-.16a.83.83,0,0,0,.5-.41,1.51,1.51,0,0,0,.17-.77,1.28,1.28,0,0,0-.25-.73,2.14,2.14,0,0,0-.64-.59,4.79,4.79,0,0,0-1.87-.6l-1.06-.11-1.07,0c-2.88,0-5.76.75-8.81,1.14a17.72,17.72,0,0,1-4.72,0c-.4-.06-.81-.16-1.21-.24s-.79-.26-1.19-.38a10.62,10.62,0,0,1-2.19-1.21A20.43,20.43,0,0,1,43,11,19.67,19.67,0,0,0,40,8a7.86,7.86,0,0,0-3.51-1.52,10.64,10.64,0,0,0-4,.24,25.46,25.46,0,0,0-4,1.39c-.67.28-1.34.59-2,.9l-1,.46-1,.46A43.26,43.26,0,0,0,10.8,20.31a32.89,32.89,0,0,0-4.7,7.1,24.42,24.42,0,0,0-2.38,8,20.6,20.6,0,0,0,.71,8.16l.14.49c0,.16.12.32.18.48l.36,1a13.57,13.57,0,0,0,3.27,4.9,10.86,10.86,0,0,0,3.13,2.13,9.31,9.31,0,0,0,1.74.57,10.39,10.39,0,0,0,1.87.22c2.57.09,5.39-.66,8.48-1.17.39-.06.78-.13,1.18-.17l.6-.07.65,0a15.74,15.74,0,0,1,2.57,0,14.08,14.08,0,0,1,5.1,1.41A10.54,10.54,0,0,1,36.06,55a8.37,8.37,0,0,1,1.77,2.51,5.84,5.84,0,0,1,.29.73,6.29,6.29,0,0,1,.22.74,9.82,9.82,0,0,1,.22,1.45c.07.91,0,1.72.06,2.4,0,.35,0,.67,0,1a4.81,4.81,0,0,0,.14.79,6.92,6.92,0,0,0,.59,1.57,30.09,30.09,0,0,0,2.26,3.46c.22.33.44.64.66,1l.34.51.33.55c.22.35.42.77.63,1.15l.28.63.14.32.12.35.22.69c.06.24.12.49.17.73l.08.37c0,.13,0,.26,0,.39l.06.77a10.93,10.93,0,0,1-.33,2.89c-.43,1.72-1,3.09-1.22,4.21a9.85,9.85,0,0,0,0,3.51,40.9,40.9,0,0,0,2.69,7.91q1.7,4.16,3.34,8.32L50.85,108a15.64,15.64,0,0,0,1.76,3.33,4.11,4.11,0,0,0,2.17,1.61,5.47,5.47,0,0,0,3-.12,10.33,10.33,0,0,0,1.6-.65,10.71,10.71,0,0,0,1.5-1,13.81,13.81,0,0,0,2.66-2.73A23.77,23.77,0,0,0,65.69,105c.64-1.22,1.21-2.54,1.77-3.89a81.92,81.92,0,0,1,3.7-8.4,29.69,29.69,0,0,1,2.61-4,36.83,36.83,0,0,0,2.5-3.47,7.36,7.36,0,0,0,1.12-3.54,14.7,14.7,0,0,0-.69-4,21.62,21.62,0,0,1-1-4.61,9,9,0,0,1,1.06-4.82,15,15,0,0,1,2.88-3.72c1.09-1.09,2.24-2.07,3.36-3.05a33,33,0,0,0,3.19-3.06,24.67,24.67,0,0,0,2.64-3.54,25.09,25.09,0,0,0,2-3.94c.28-.69.52-1.39.74-2.09A4.89,4.89,0,0,0,92,46.8Zm.51-.12a2.82,2.82,0,0,1,0,1.23c-.08.38-.19.74-.28,1.11-.21.72-.44,1.45-.71,2.15a27.94,27.94,0,0,1-1.92,4.11A28.34,28.34,0,0,1,86.94,59a39.2,39.2,0,0,1-3.12,3.31c-1.08,1-2.16,2.07-3.12,3.16A13.7,13.7,0,0,0,78.34,69a7.06,7.06,0,0,0-.57,3.88A19.46,19.46,0,0,0,79,77a16.69,16.69,0,0,1,1.17,4.7,9.35,9.35,0,0,1-.24,2.64A12.55,12.55,0,0,1,79,86.72a39,39,0,0,1-2.4,4,27.35,27.35,0,0,0-2.05,3.68c-1.16,2.56-2,5.37-3,8.25a34.06,34.06,0,0,1-4.11,8.64,18.42,18.42,0,0,1-3.45,3.8,14.29,14.29,0,0,1-4.73,2.64,10.64,10.64,0,0,1-5.87.27,8.92,8.92,0,0,1-2.89-1.36,10.15,10.15,0,0,1-2.15-2.08,19.68,19.68,0,0,1-2.53-4.52l-1.69-4.2c-1.12-2.77-2.24-5.55-3.33-8.33-.54-1.39-1.11-2.78-1.64-4.29a26.87,26.87,0,0,1-1.26-4.81,18.05,18.05,0,0,1-.18-2.67A14.32,14.32,0,0,1,38.08,83c.42-1.81,1.06-3.2,1.37-4.37a6.92,6.92,0,0,0,.24-1.54l0-.35a1.09,1.09,0,0,0,0-.18l0-.18L39.55,76l-.11-.38-.06-.19-.08-.19-.16-.4c-.15-.27-.25-.54-.42-.82l-.25-.43-.26-.43c-.18-.29-.38-.59-.58-.89a34.09,34.09,0,0,1-2.5-4.13,11.48,11.48,0,0,1-.9-2.65A7.94,7.94,0,0,1,34,64.1q0-.69,0-1.29c0-.81,0-1.49,0-2.08a5.35,5.35,0,0,0-.1-.77,3.18,3.18,0,0,0-.09-.33c-.05-.1-.05-.22-.11-.32a3.86,3.86,0,0,0-.78-1.14,5.51,5.51,0,0,0-1.28-.94,9.88,9.88,0,0,0-3.48-1,14.59,14.59,0,0,0-3.93.13c-1.41.2-2.87.48-4.41.71a23.46,23.46,0,0,1-4.88.33A14.43,14.43,0,0,1,12.36,57a13.35,13.35,0,0,1-2.49-.87,14.65,14.65,0,0,1-4.2-3,17.48,17.48,0,0,1-3-4,15.38,15.38,0,0,1-1-2.27l-.41-1.14c-.07-.19-.14-.38-.2-.57l-.15-.59A24.19,24.19,0,0,1,.21,35a27.91,27.91,0,0,1,2.88-9.06A36.07,36.07,0,0,1,8.41,18.2,46.3,46.3,0,0,1,23.32,7.36l1.06-.46,1-.45c.69-.29,1.39-.6,2.1-.88A28.05,28.05,0,0,1,32,4.12,12.87,12.87,0,0,1,37,4a10.26,10.26,0,0,1,4.59,2.13,21.66,21.66,0,0,1,3.23,3.46,18.61,18.61,0,0,0,2.87,3.09,8.15,8.15,0,0,0,3.6,1.59,16.44,16.44,0,0,0,4.22.11c2.9-.23,5.9-.86,9-.77l1.17.08,1.16.18a6.08,6.08,0,0,1,2.33.89,3.38,3.38,0,0,1,1,1,2.49,2.49,0,0,1,.4,1.38,2.63,2.63,0,0,1-.37,1.38,1.92,1.92,0,0,1-1.25.88l.39-.72c1.16,3.15,2.33,6.3,3.65,9.39.66,1.54,1.34,3.07,2.07,4.58s1.48,3,2.32,4.46,1.69,2.9,2.61,4.3A14.52,14.52,0,0,0,83.19,45a6.25,6.25,0,0,0,2.15,1.09,4.54,4.54,0,0,0,2.37-.06,22.86,22.86,0,0,1,2.47-.64,2.64,2.64,0,0,1,1.38.13,1.32,1.32,0,0,1,.32.2,3.44,3.44,0,0,1,.27.27c.06.1.13.2.19.31Z"/><path class="cls-1" d="M82.93,45A11.39,11.39,0,0,1,83,42.69q.17-1.17.42-2.31c.36-1.52.8-3,1.29-4.49,1.4-2.74,2.86-5.43,4.43-8s3.23-5.2,5-7.7c.9-1.25,1.82-2.49,2.82-3.69A21,21,0,0,1,100.46,13a1.41,1.41,0,0,1,1.75,2.2l0,0a60.26,60.26,0,0,1-7.3,5.38,30.77,30.77,0,0,1-8.48,3.7,21.2,21.2,0,0,1-9.41.29,16.74,16.74,0,0,1-4.26-2.1,12.71,12.71,0,0,1-3.25-3.25,15.15,15.15,0,0,0,8,2.62,19.31,19.31,0,0,0,8.18-.28,28.24,28.24,0,0,0,7.71-3.38,58,58,0,0,0,7-5.13l1.72,2.22a19.11,19.11,0,0,0-2.93,3c-.93,1.13-1.83,2.31-2.69,3.52-1.73,2.42-3.35,4.95-4.89,7.51-.77,1.29-1.51,2.58-2.23,3.89s-1.42,2.63-2,4c-.84,1.25-1.65,2.51-2.41,3.8-.39.65-.75,1.31-1.09,2A13.36,13.36,0,0,0,82.93,45Z"/><path class="cls-1" d="M82.93,45A11.39,11.39,0,0,1,83,42.69q.17-1.17.42-2.31c.36-1.52.8-3,1.29-4.49,1.4-2.74,2.86-5.43,4.43-8s3.23-5.2,5-7.7c.9-1.25,1.82-2.49,2.82-3.69A21,21,0,0,1,100.46,13a1.41,1.41,0,0,1,1.75,2.2l0,0a60.26,60.26,0,0,1-7.3,5.38,30.77,30.77,0,0,1-8.48,3.7,21.2,21.2,0,0,1-9.41.29,16.74,16.74,0,0,1-4.26-2.1,12.71,12.71,0,0,1-3.25-3.25,15.15,15.15,0,0,0,8,2.62,19.31,19.31,0,0,0,8.18-.28,28.24,28.24,0,0,0,7.71-3.38,58,58,0,0,0,7-5.13l1.72,2.22a19.11,19.11,0,0,0-2.93,3c-.93,1.13-1.83,2.31-2.69,3.52-1.73,2.42-3.35,4.95-4.89,7.51-.77,1.29-1.51,2.58-2.23,3.89s-1.42,2.63-2,4c-.84,1.25-1.65,2.51-2.41,3.8-.39.65-.75,1.31-1.09,2A13.36,13.36,0,0,0,82.93,45Z"/><path class="cls-1" d="M82.93,45a11.56,11.56,0,0,1,0-2.35c.1-.78.22-1.56.38-2.33a40.81,40.81,0,0,1,1.21-4.53C86,33.06,87.41,30.36,89,27.73s3.23-5.2,5-7.71c.89-1.25,1.82-2.49,2.83-3.7a21.31,21.31,0,0,1,3.49-3.49,1.61,1.61,0,0,1,2,2.51l0,0A59.21,59.21,0,0,1,95,20.77a30.89,30.89,0,0,1-8.53,3.73,22.2,22.2,0,0,1-4.72.67h-1.2l-1.2-.05c-.4,0-.79-.1-1.19-.11A4.73,4.73,0,0,1,77,24.79a16.79,16.79,0,0,1-4.27-2.21l-.92-.74c-.29-.26-.57-.53-.85-.8l-.76-.87c-.23-.31-.46-.62-.67-.93a15.24,15.24,0,0,0,8.08,2.43,19.05,19.05,0,0,0,8.09-.29A28,28,0,0,0,93.31,18a56.25,56.25,0,0,0,6.93-5.12l2,2.54a12.35,12.35,0,0,0-1.46,1.32c-.49.51-1,1.05-1.43,1.61-.93,1.12-1.82,2.3-2.69,3.51-1.73,2.41-3.34,4.93-4.88,7.49C91,30.67,90.24,32,89.52,33.27s-1.42,2.62-2,4C86.64,38.48,85.8,39.72,85,41c-.4.64-.78,1.29-1.13,1.95A13.92,13.92,0,0,0,82.93,45Z"/><path class="cls-1" d="M100.31,15l1-.81A9,9,0,0,0,100.31,15Z"/><path class="cls-1" d="M115.42,12.81c.5-.4,1-.8,1.47-1.21A14.12,14.12,0,0,0,115.42,12.81Z"/><path class="cls-1" d="M84,0A9.65,9.65,0,0,0,74.5,8,7.82,7.82,0,0,1,75.8,6.9,8.64,8.64,0,1,1,84,18.28l-.29,0a6.45,6.45,0,0,1-1.45.86,9.16,9.16,0,0,0,1.74.16A9.64,9.64,0,0,0,84,0Z"/><path class="cls-1" d="M84,2a7.63,7.63,0,0,1,.79,15.22,6.19,6.19,0,0,1-1.08,1l.29,0A8.64,8.64,0,1,0,75.8,6.9a7.52,7.52,0,0,1,1.37-.66A7.64,7.64,0,0,1,84,2Z"/><path class="cls-1" d="M75,13.06a4.51,4.51,0,0,0,2.68,3.84A9.72,9.72,0,0,1,75,13.06Z"/><path class="cls-1" d="M79.49,18.5a5.73,5.73,0,0,1-5.73-5.73,5.65,5.65,0,0,1,.61-2.56c0-.19,0-.38,0-.57A9.37,9.37,0,0,1,74.5,8a6.92,6.92,0,0,0,7.75,11.16,9.24,9.24,0,0,1-2.15-.66A6,6,0,0,1,79.49,18.5Z"/><path class="cls-1" d="M85.21,12.77a5.71,5.71,0,0,1-2.12,4.45c.3,0,.6.05.9.05a6.85,6.85,0,0,0,.79,0,6.92,6.92,0,0,0-7.61-11,8.07,8.07,0,0,0-.59,1.6,5.71,5.71,0,0,1,8.63,4.93Z"/><path class="cls-1" d="M74.37,10.21a5.53,5.53,0,0,1,1-1.45,8.93,8.93,0,0,1,.4-1.86A7.82,7.82,0,0,0,74.5,8a9.37,9.37,0,0,0-.15,1.68C74.35,9.83,74.36,10,74.37,10.21Z"/><path class="cls-1" d="M81.83,18a5.61,5.61,0,0,1-1.73.47,9.24,9.24,0,0,0,2.15.66,6.45,6.45,0,0,0,1.45-.86A8.19,8.19,0,0,1,81.83,18Z"/><path class="cls-1" d="M76.58,7.84a8.07,8.07,0,0,1,.59-1.6,7.52,7.52,0,0,0-1.37.66,8.93,8.93,0,0,0-.4,1.86A5.52,5.52,0,0,1,76.58,7.84Z"/><path class="cls-1" d="M84.78,17.23a6.85,6.85,0,0,1-.79,0c-.3,0-.6,0-.9-.05a5.6,5.6,0,0,1-1.26.77,8.19,8.19,0,0,0,1.87.27A6.19,6.19,0,0,0,84.78,17.23Z"/><path class="cls-1" d="M75,13.06a9.59,9.59,0,0,1-.61-2.85,5.65,5.65,0,0,0-.61,2.56,5.73,5.73,0,0,0,5.73,5.73,6,6,0,0,0,.61,0,9.47,9.47,0,0,1-2.44-1.56A4.51,4.51,0,0,1,75,13.06Z"/><path class="cls-1" d="M79.49,8.25a4.52,4.52,0,0,1,2,8.58,7.45,7.45,0,0,0,1.63.39,5.72,5.72,0,0,0-6.51-9.38,7.54,7.54,0,0,0-.21,1.66A4.52,4.52,0,0,1,79.49,8.25Z"/><path class="cls-1" d="M75,12.77a4.47,4.47,0,0,1,.48-2,8.47,8.47,0,0,1-.09-1.13,8.49,8.49,0,0,1,.05-.88,5.53,5.53,0,0,0-1,1.45A9.59,9.59,0,0,0,75,13.06,2.83,2.83,0,0,1,75,12.77Z"/><path class="cls-1" d="M79.49,17.29a4.45,4.45,0,0,1-1.83-.39,9.47,9.47,0,0,0,2.44,1.56A5.61,5.61,0,0,0,81.83,18a8.59,8.59,0,0,1-1.89-.72Z"/><path class="cls-1" d="M75.44,10.77a4.48,4.48,0,0,1,.93-1.27,7.54,7.54,0,0,1,.21-1.66,5.52,5.52,0,0,0-1.18.92,8.49,8.49,0,0,0-.05.88A8.47,8.47,0,0,0,75.44,10.77Z"/><path class="cls-1" d="M81.46,16.83a4.6,4.6,0,0,1-1.52.44,8.59,8.59,0,0,0,1.89.72,5.6,5.6,0,0,0,1.26-.77A7.45,7.45,0,0,1,81.46,16.83Z"/><path class="cls-1" d="M127.43,43l-1.29,2.76h-3.72v-.48l7.68-16.35h1.64l7.63,16.35v.48h-3.7L134.36,43Zm1.16-3h4.63l-2.31-5.5Z"/><path class="cls-1" d="M150.71,39.83h-6v5.93h-3.55V29.07H151.4V32.2h-6.67v4.5h6Z"/><path class="cls-1" d="M168,45.24v.5h-3.81l-3.43-5.51h-3v5.51h-3.58V29.05c2.38,0,4.74,0,7.13,0a5.59,5.59,0,0,1,5.89,5.72,5.33,5.33,0,0,1-3,4.91Zm-6.7-7.94a2.43,2.43,0,0,0,2.46-2.6,2.39,2.39,0,0,0-2.46-2.53h-3.57V37.3Z"/><path class="cls-1" d="M178.07,42.92v2.84h-8.29V42.92h2.36V31.84H170V29.07h7.91v2.77h-2.17V42.92Z"/><path class="cls-1" d="M188.39,28.91c3.36,0,6.94,1.81,7.7,5.93h-3.46a4.15,4.15,0,0,0-4.24-2.71c-2.95,0-4.93,2.14-4.93,5.31a4.94,4.94,0,0,0,4.91,5.25,4.17,4.17,0,0,0,4.34-3h3.43c-.72,4.41-4.27,6.25-7.75,6.25a8.19,8.19,0,0,1-8.53-8.49A8.17,8.17,0,0,1,188.39,28.91Z"/><path class="cls-1" d="M201.59,43l-1.28,2.76h-3.72v-.48l7.67-16.35h1.65l7.63,16.35v.48h-3.7L208.53,43Zm1.17-3h4.63l-2.32-5.5Z"/><path class="cls-1" d="M218.9,36.23v9.53h-3.56V29h1.12l9.37,9.54V29.07h3.58V45.81h-1.07Z"/><path class="cls-1" d="M246.71,28.91c3.36,0,6.94,1.81,7.7,5.93H251a4.15,4.15,0,0,0-4.24-2.71c-3,0-4.93,2.14-4.93,5.31a4.94,4.94,0,0,0,4.91,5.25,4.15,4.15,0,0,0,4.33-3h3.44c-.72,4.41-4.27,6.25-7.75,6.25-4.39,0-8.53-3-8.53-8.49A8.17,8.17,0,0,1,246.71,28.91Z"/><path class="cls-1" d="M267.47,32.2h-6.63v3.38H267v3.13h-6.2v3.81h6.82v3.24H257.24V29.07h10.23Z"/><path class="cls-1" d="M274.43,36.23v9.53h-3.56V29H272l9.37,9.54V29.07h3.58V45.81h-1.07Z"/><path class="cls-1" d="M287.29,32.17v-3.1h12.35v3.1h-4.43V45.76h-3.46V32.17Z"/><path class="cls-1" d="M312.23,32.2H305.6v3.38h6.2v3.13h-6.2v3.81h6.82v3.24H302V29.07h10.23Z"/><path class="cls-1" d="M329.46,45.24v.5h-3.82l-3.43-5.51h-3v5.51h-3.58V29.05c2.39,0,4.75,0,7.13,0a5.59,5.59,0,0,1,5.89,5.72,5.31,5.31,0,0,1-3,4.91Zm-6.7-7.94a2.42,2.42,0,0,0,2.45-2.6,2.38,2.38,0,0,0-2.45-2.53h-3.58V37.3Z"/><path class="cls-1" d="M345.5,46.05A8.18,8.18,0,0,1,337,37.42a8.52,8.52,0,1,1,17,0A8.21,8.21,0,0,1,345.5,46.05Zm0-3.27c2.6,0,5-1.71,5-5.36s-2.33-5.32-4.93-5.32-5,1.79-5,5.32S342.87,42.78,345.54,42.78Z"/><path class="cls-1" d="M366.52,39.83h-6v5.93H357V29.07h10.23V32.2h-6.68v4.5h6Z"/><path class="cls-1" d="M134.72,60.8h-6.63v3.38h6.2V67.3h-6.2v3.82h6.82v3.24H124.49V57.67h10.23Z"/><path class="cls-1" d="M144.25,63.42l1.62-3.15,1.65-2.6h3.86v.53l-5,7.34,5.6,8.32v.5h-3.74L146,71.14,144.25,68h-.12l-1.83,3.22-2.08,3.12h-3.79v-.5l5.63-8.32L137,58.2v-.53h3.88l1.74,2.74,1.53,3Z"/><path class="cls-1" d="M161.2,57.51c3.36,0,6.94,1.81,7.7,5.93h-3.46a4.16,4.16,0,0,0-4.24-2.72c-3,0-4.94,2.15-4.94,5.32a4.94,4.94,0,0,0,4.91,5.25,4.15,4.15,0,0,0,4.34-3H169c-.72,4.41-4.27,6.25-7.75,6.25-4.39,0-8.54-3-8.54-8.49A8.17,8.17,0,0,1,161.2,57.51Z"/><path class="cls-1" d="M182,60.8h-6.63v3.38h6.2V67.3h-6.2v3.82h6.82v3.24H171.73V57.67H182Z"/><path class="cls-1" d="M188.94,71.17h7v3.19H185.36V57.67h3.58Z"/><path class="cls-1" d="M201.78,71.17h7v3.19H198.21V57.67h3.57Z"/><path class="cls-1" d="M221.28,60.8h-6.63v3.38h6.2V67.3h-6.2v3.82h6.82v3.24H211.05V57.67h10.23Z"/><path class="cls-1" d="M228.24,64.82v9.54h-3.55V57.6h1.12l9.36,9.54V57.67h3.58V74.41h-1.07Z"/><path class="cls-1" d="M250.21,57.51c3.36,0,6.94,1.81,7.7,5.93h-3.45a4.17,4.17,0,0,0-4.25-2.72c-3,0-4.93,2.15-4.93,5.32a4.94,4.94,0,0,0,4.91,5.25,4.16,4.16,0,0,0,4.34-3H258c-.71,4.41-4.27,6.25-7.75,6.25A8.19,8.19,0,0,1,241.68,66,8.17,8.17,0,0,1,250.21,57.51Z"/><path class="cls-1" d="M271,60.8h-6.63v3.38h6.2V67.3h-6.2v3.82h6.82v3.24H260.74V57.67H271Z"/><path class="cls-1" d="M289.75,68.42h-6v5.94h-3.55V57.67h10.22V60.8h-6.67v4.5h6Z"/><path class="cls-1" d="M300.76,74.65A8.17,8.17,0,0,1,292.28,66a8.52,8.52,0,1,1,17,0A8.22,8.22,0,0,1,300.76,74.65Zm.05-3.27c2.6,0,5-1.72,5-5.36s-2.34-5.32-4.94-5.32-5,1.79-5,5.32S298.14,71.38,300.81,71.38Z"/><path class="cls-1" d="M326.07,73.84v.5h-3.81l-3.43-5.51h-3v5.51h-3.58V57.65c2.38,0,4.74,0,7.13,0a5.59,5.59,0,0,1,5.89,5.72,5.33,5.33,0,0,1-3,4.91Zm-6.7-7.94a2.43,2.43,0,0,0,2.46-2.6,2.39,2.39,0,0,0-2.46-2.53H315.8V65.9Z"/><path class="cls-1" d="M334.58,74.34V57.65c2.38,0,4.74,0,7.13,0a5.76,5.76,0,0,1,5.93,6.08,5.68,5.68,0,0,1-5.93,5.89h-3.56v4.72Zm7.13-7.78a2.68,2.68,0,0,0,2.52-2.93,2.61,2.61,0,0,0-2.52-2.86c-1.22,0-2.41,0-3.63,0v5.79Z"/><path class="cls-1" d="M357.72,74.65A8.17,8.17,0,0,1,349.24,66a8.52,8.52,0,1,1,17,0A8.22,8.22,0,0,1,357.72,74.65Zm0-3.27c2.6,0,5-1.72,5-5.36s-2.34-5.32-4.94-5.32-5,1.79-5,5.32S355.1,71.38,357.77,71.38Z"/><path class="cls-1" d="M369.23,74.34V57.65c2.38,0,4.74,0,7.13,0a5.76,5.76,0,0,1,5.93,6.08,5.68,5.68,0,0,1-5.93,5.89h-3.55v4.72Zm7.13-7.78a2.68,2.68,0,0,0,2.53-2.93,2.62,2.62,0,0,0-2.53-2.86c-1.22,0-2.41,0-3.62,0v5.79Z"/><path class="cls-1" d="M384.67,68.81V57.67h3.58V68.73c0,1.79,1.45,2.7,3.1,2.7s3.07-.91,3.07-2.7V57.67H398V68.81c0,3.74-3.07,5.76-6.6,5.76S384.67,72.55,384.67,68.81Z"/><path class="cls-1" d="M405.24,71.17h7v3.19H401.67V57.67h3.57Z"/><path class="cls-1" d="M417.44,71.6l-1.28,2.76h-3.72v-.48l7.67-16.35h1.65l7.63,16.35v.48h-3.7l-1.31-2.76Zm1.17-3h4.63l-2.31-5.51Z"/><path class="cls-1" d="M428.45,60.77v-3.1H440.8v3.1h-4.43V74.36h-3.46V60.77Z"/><path class="cls-1" d="M450.6,71.52v2.84h-8.3V71.52h2.36V60.44h-2.17V57.67h7.92v2.77h-2.17V71.52Z"/><path class="cls-1" d="M460.87,74.65A8.18,8.18,0,0,1,452.38,66a8.53,8.53,0,1,1,17.05,0A8.22,8.22,0,0,1,460.87,74.65Zm.05-3.27c2.59,0,5-1.72,5-5.36s-2.34-5.32-4.94-5.32-5,1.79-5,5.32S458.25,71.38,460.92,71.38Z"/><path class="cls-1" d="M475.91,64.82v9.54h-3.56V57.6h1.13l9.36,9.54V57.67h3.58V74.41h-1.07Z"/><path class="cls-1" d="M134.43,103V95.9h-6.38V103h-3.56V86.27h3.56v6.37h6.38V86.27H138V103Z"/><path class="cls-1" d="M152.09,89.4h-6.62v3.38h6.19V95.9h-6.19v3.82h6.81V103H141.87V86.27h10.22Z"/><path class="cls-1" d="M158.43,100.2,157.14,103h-3.71v-.48l7.67-16.35h1.65l7.63,16.35V103h-3.7l-1.31-2.76Zm1.17-3h4.63l-2.32-5.51Z"/><path class="cls-1" d="M175.76,99.77h7V103H172.18V86.27h3.58Z"/><path class="cls-1" d="M182.24,89.37v-3.1h12.35v3.1h-4.44V103H186.7V89.37Z"/><path class="cls-1" d="M206.89,103V95.9H200.5V103h-3.56V86.27h3.56v6.37h6.39V86.27h3.57V103Z"/><path class="cls-1" d="M222.33,100.2,221,103h-3.72v-.48L225,86.13h1.64l7.63,16.35V103h-3.69l-1.32-2.76Zm1.16-3h4.63l-2.31-5.51Z"/><path class="cls-1" d="M239.63,93.42V103h-3.55V86.2h1.12l9.37,9.54V86.27h3.57V103h-1.07Z"/><path class="cls-1" d="M260.22,86.3c5.32,0,8.18,4,8.18,8.27s-2.79,8.39-8.18,8.39H254V86.3Zm-.05,13.44c3.08,0,4.68-2.48,4.68-5.15s-1.65-5.07-4.68-5.07h-2.59V99.74Z"/><path class="cls-1" d="M277.21,102.94V86.25c2.39,0,4.75,0,7.13,0a5.76,5.76,0,0,1,5.94,6.08,5.68,5.68,0,0,1-5.94,5.89h-3.55v4.72Zm7.13-7.78a2.68,2.68,0,0,0,2.53-2.93,2.61,2.61,0,0,0-2.53-2.86c-1.21,0-2.41,0-3.62,0v5.79Z"/><path class="cls-1" d="M300.36,103.25a8.62,8.62,0,1,1,8.55-8.63A8.18,8.18,0,0,1,300.36,103.25Zm0-3.27c2.6,0,5-1.72,5-5.36S303,89.3,300.43,89.3s-5,1.79-5,5.32S297.73,100,300.4,100Z"/><path class="cls-1" d="M315.42,99.77h7V103H311.84V86.27h3.58Z"/><path class="cls-1" d="M332.13,100.12V103h-8.3v-2.84h2.36V89H324V86.27h7.91V89h-2.16v11.08Z"/><path class="cls-1" d="M342.45,86.11c3.36,0,6.93,1.81,7.69,5.93h-3.45a4.16,4.16,0,0,0-4.24-2.72c-3,0-4.94,2.15-4.94,5.32a4.94,4.94,0,0,0,4.91,5.25,4.15,4.15,0,0,0,4.34-3h3.43c-.71,4.41-4.26,6.25-7.74,6.25-4.39,0-8.54-3-8.54-8.49A8.17,8.17,0,0,1,342.45,86.11Z"/><path class="cls-1" d="M358.25,93l1.64-3.31,2-3.44h3.79v.53L360,96.29V103h-3.57V96.29l-5.75-9.49v-.53h3.84l2.07,3.56L358.13,93Z"/></g></g></svg>